<?xml version="1.0" ?><!DOCTYPE svg  PUBLIC '-//W3C//DTD SVG 1.1//EN'  'http://www.w3.org/Graphics/SVG/1.1/DTD/svg11.dtd'><svg height="78px" id="Layer_1" style="enable-background:new 0 0 78 78;" version="1.1" viewBox="0 0 78 78" width="78px" xml:space="preserve" xmlns="http://www.w3.org/2000/svg" xmlns:xlink="http://www.w3.org/1999/xlink"><path d="M75,15v-4.5C75,9.671,74.328,9,73.5,9H45c-2.448,0-4.627,1.18-5.996,3c-0.002,0-0.003,0-0.004,0  s-0.002,0-0.004,0C37.627,10.18,35.448,9,33,9H4.5C3.672,9,3,9.671,3,10.5V15H0v51h32.299c1.641,1.84,4.041,3,6.701,3  s5.059-1.16,6.699-3H78V15H75z M6,12h27c2.481,0,4.5,2.019,4.5,4.5v28.666c0,0.829,0.672,1.5,1.5,1.5s1.5-0.671,1.5-1.5V16.5  c0-2.481,2.019-4.5,4.5-4.5h27v48H45c-2.447,0-4.627,1.18-5.996,3c-0.001,0-0.003,0-0.004,0s-0.003,0-0.004,0  c-1.369-1.82-3.549-3-5.996-3H6V12z" style="fill:#333F4F;"/></svg>