<?xml version="1.0" ?><svg height="308" version="1.1" width="338" xmlns="http://www.w3.org/2000/svg" xmlns:xlink="http://www.w3.org/1999/xlink"><g id="dp_dp001" transform="matrix(1,0,0,1,-639.853,-123.164)"><path d="M 855.288,322.959 C 845.675,305.041 826.475,289.505 802.688,282.481 C 815.968,273.565 824.728,258.401 824.728,241.193 C 824.728,213.756 802.505,191.521 775.093,191.521 C 747.693,191.521 725.476,213.756 725.476,241.193 C 725.476,258.407 734.224,273.576 747.511,282.488 C 723.436,289.599 704.056,305.433 694.573,323.628" fill="none" fill-rule="evenodd" id="dp_path002" stroke="black" stroke-linecap="round" stroke-linejoin="round" stroke-width="12"/><path d="M 903.588,257.575 C 903.588,328.7 845.985,386.359 774.931,386.359 C 703.875,386.359 646.272,328.7 646.272,257.575 C 646.272,186.448 703.875,128.789 774.931,128.789 C 845.985,128.789 903.588,186.448 903.588,257.575 Z " fill="none" fill-rule="evenodd" id="dp_path003" stroke="black" stroke-linejoin="round" stroke-width="12"/><path d="M 877.687,339.647 L 969.696,422.937" fill="none" fill-rule="evenodd" id="dp_path004" stroke="black" stroke-linecap="round" stroke-linejoin="round" stroke-width="17.3333"/></g></svg>