<?xml version="1.0" ?><!DOCTYPE svg  PUBLIC '-//W3C//DTD SVG 1.1//EN'  'http://www.w3.org/Graphics/SVG/1.1/DTD/svg11.dtd'><svg enable-background="new 0 0 48 48" height="48px" id="Layer_1" version="1.1" viewBox="0 0 48 48" width="48px" xml:space="preserve" xmlns="http://www.w3.org/2000/svg" xmlns:xlink="http://www.w3.org/1999/xlink"><g><circle cx="16.245" cy="33.645" fill="#231F20" r="1.541"/><circle cx="16.245" cy="14.354" fill="#231F20" r="1.541"/><circle cx="31.756" cy="23.782" fill="#231F20" r="1.541"/><path d="M24-0.001c-13.255,0-24,10.745-24,24S10.745,48,24,48s24-10.746,24-24.001S37.255-0.001,24-0.001z    M31.756,27.803c-0.754,0-1.451-0.221-2.053-0.582l-9.519,5.625c0.052,0.26,0.08,0.525,0.08,0.799c0,2.221-1.8,4.02-4.02,4.02   c-2.221,0-4.021-1.799-4.021-4.02s1.8-4.02,4.021-4.02c0.816,0,1.572,0.246,2.206,0.664l9.408-5.561   c-0.074-0.305-0.125-0.619-0.125-0.946c0-0.486,0.1-0.945,0.258-1.377l-8.846-5.28c-0.732,0.766-1.758,1.248-2.901,1.248   c-2.221,0-4.021-1.799-4.021-4.02c0-2.22,1.8-4.02,4.021-4.02c2.164,0,3.916,1.714,4.003,3.857l9.9,5.909   c0.492-0.215,1.035-0.339,1.607-0.339c2.219,0,4.02,1.8,4.02,4.021C35.775,26.004,33.975,27.803,31.756,27.803z" fill="#231F20"/></g></svg>