<?xml version="1.0" ?><svg id="Layer_1" style="enable-background:new 0 0 24 24;" version="1.1" viewBox="0 0 24 24" xml:space="preserve" xmlns="http://www.w3.org/2000/svg" xmlns:xlink="http://www.w3.org/1999/xlink"><title/><g id="Santa_Hat"><g><path d="M10.501,22.5c4.25,0,9-1.25,9-2.5s-0.91-1.34-0.91-2s0.46-1.06,0.46-2    c0.106-0.716-0.388-1.382-1.104-1.488c-0.088-0.013-0.177-0.017-0.266-0.012c0,0,1.47,3-7.17,3s-7.17-3-7.17-3    c-0.71,0-1.83,0.41-1.83,1.5c0,0.94,0.46,1.34,0.46,2s-0.46,0.75-0.46,2S6.251,22.5,10.501,22.5z" style="fill:#F8F8F8;"/><path d="M3.001,20c0-1.25,0.38-1.34,0.38-2s-0.38-1.06-0.38-2c-0.003-0.296,0.084-0.585,0.25-0.83    c-0.035-0.226-0.008-0.458,0.08-0.67c-0.71,0-1.83,0.41-1.83,1.5c0,0.94,0.46,1.34,0.46,2s-0.46,0.75-0.46,2    c0,1,2.88,1.94,6.15,2.33C5.131,21.88,3.001,20.92,3.001,20z" style="fill:#FFFFFF;"/><path d="M18.591,18c0-0.66,0.46-1.06,0.46-2c0.106-0.716-0.388-1.382-1.104-1.488    c-0.088-0.013-0.177-0.017-0.266-0.012c0.149,0.372,0.12,0.792-0.08,1.14c0.008,0.12,0.008,0.24,0,0.36c0,0.94-0.38,1.34-0.38,2    s0.76,0.75,0.76,2c0,0.92-2.13,1.88-4.65,2.33c3.29-0.39,6.17-1.33,6.17-2.33C19.501,18.75,18.591,18.66,18.591,18z" style="opacity:0.1;enable-background:new    ;"/><path d="M17.001,2.5c-1.261-0.682-2.677-1.027-4.11-1c-1.774,0.008-3.299,1.261-3.65,3    c-1.63,0-4.09,3.09-4.09,5.5c-0.002,1.681-0.659,3.295-1.83,4.5c0.035,1.016,0.673,1.913,1.62,2.28    c1.797,0.565,3.679,0.809,5.56,0.72c5.18,0,6.73-1.08,7.14-1.94l0,0c0.152-0.337,0.152-0.723,0-1.06    c-0.579-0.694-0.814-1.613-0.64-2.5c0.004-0.172,0.024-0.342,0.06-0.51c0-0.11,0-0.23,0.08-0.34c0.173-0.535,0.28-1.089,0.32-1.65    c0.012-0.355-0.011-0.71-0.07-1.06v-0.1l0,0L17.431,8c0.23-0.25,1,0.36,1.31,0.22S19.191,7,19.531,7s0.49,1,0.79,1.17l0,0    L20.501,8h0.17C20.52,5.642,19.121,3.544,17.001,2.5z" style="fill:#D51C29;"/><path d="M4.431,16.08c-0.077-0.308-0.003-0.635,0.2-0.88    c0.999-1.171,1.545-2.661,1.54-4.2c0-2.24,2.16-5.1,3.83-5.45c0.219-0.063,0.392-0.232,0.46-0.45c0.419-1.361,1.589-2.356,3-2.55    c0.221-0.038,0.445-0.059,0.67-0.06c1.433-0.027,2.849,0.318,4.11,1c0.234,0.096,0.458,0.213,0.67,0.35    c-0.533-0.578-1.185-1.035-1.91-1.34c-1.261-0.682-2.677-1.027-4.11-1c-1.609-0.005-3.029,1.049-3.49,2.59    C9.333,4.308,9.16,4.477,8.941,4.54c-1.63,0.34-3.79,3.2-3.79,5.46c0,1.532-0.546,3.014-1.54,4.18    c-0.203,0.245-0.277,0.572-0.2,0.88c0.182,0.663,0.626,1.223,1.23,1.55C4.551,16.442,4.481,16.264,4.431,16.08z" style="opacity:0.2;fill:#FFFFFF;enable-background:new    ;"/><path d="M17.381,8.31L17.431,8c0.23-0.25,1,0.36,1.31,0.22S19.191,7,19.531,7s0.49,1,0.79,1.17    s1.08-0.47,1.31-0.17s-0.33,1.1-0.2,1.44s1.07,0.49,1.07,0.86s-0.95,0.54-1.07,0.86s0.43,1.18,0.2,1.44s-1-0.36-1.31-0.22    s-0.45,1.17-0.79,1.17s-0.49-1-0.79-1.17s-1,0.42-1.31,0.22s0-1-0.28-1.41" style="fill:#F8F8F8;"/><g><polygon points="17.161,11.15 17.161,11.15 17.161,11.15    " style="fill:none;"/><path d="M17.081,11.49c-0.043,0.167-0.07,0.338-0.08,0.51C17.012,11.828,17.038,11.657,17.081,11.49z" style="fill:none;"/><path d="M17.161,11.15c0,0.12-0.05,0.23-0.08,0.34     C17.111,11.38,17.131,11.26,17.161,11.15z" style="opacity:0.1;enable-background:new    ;"/><path d="M17.001,12c0.004-0.172,0.024-0.342,0.06-0.51c0-0.11,0-0.23,0.08-0.34     l0,0c0.173-0.535,0.28-1.089,0.32-1.65c0.012-0.355-0.011-0.71-0.07-1.06c-0.255-1.006-0.954-1.842-1.9-2.27     c0.25,0.836,0.348,1.71,0.29,2.58c0,0.92-0.46,1.91-0.46,2.73c0.085,0.794,0.259,1.576,0.52,2.33c0.097,0.343,0.097,0.707,0,1.05     c-0.188,0.815-0.747,1.496-1.51,1.84c-1.533,0.548-3.153,0.812-4.78,0.78h0.88c8.65,0,7.17-3,7.17-3     C17.042,13.784,16.822,12.875,17.001,12z" style="opacity:0.1;enable-background:new    ;"/></g><path d="M23.001,10.25c0-0.51-0.48-0.75-0.83-0.93l-0.25-0.13c0-0.1,0.07-0.24,0.1-0.33    c0.13-0.4,0.3-0.89,0-1.24c-0.233-0.228-0.581-0.291-0.88-0.16c-0.312-2.364-1.787-4.414-3.93-5.46l-0.56-0.23    c-1.163-0.564-2.449-0.828-3.74-0.77c-1.855-0.009-3.489,1.217-4,3c-2,0.37-4.24,3.49-4.24,6c-0.006,1.483-0.566,2.909-1.57,4    c-1.124-0.006-2.052,0.877-2.1,2c0.006,0.468,0.104,0.93,0.29,1.36c0.096,0.201,0.154,0.418,0.17,0.64    c-0.007,0.158-0.052,0.312-0.13,0.45c-0.235,0.482-0.348,1.014-0.33,1.55c0,2,6.09,3,9.5,3s9.5-1,9.5-3    c0.012-0.633-0.242-1.243-0.7-1.68c-0.17-0.18-0.22-0.25-0.22-0.32c0.017-0.222,0.074-0.439,0.17-0.64    c0.186-0.43,0.284-0.892,0.29-1.36c0.11-0.994-0.607-1.888-1.6-1.998c-0.007-0.001-0.013-0.001-0.02-0.002    c-0.23-0.261-0.364-0.593-0.38-0.94c0.258-0.002,0.514-0.056,0.75-0.16l0.23-0.08l0.11,0.25c0.17,0.41,0.38,0.91,0.9,0.91    s0.73-0.51,0.9-0.91c0.035-0.081,0.065-0.165,0.09-0.25l0.24,0.09c0.35,0.14,0.88,0.35,1.24,0s0.16-0.85,0-1.24    c0-0.09-0.08-0.24-0.1-0.33l0.25-0.13C22.521,11,23.001,10.76,23.001,10.25z M5.651,10c0-2.16,2.27-5,3.61-5    c0.219,0.001,0.414-0.141,0.48-0.35c0.301-1.519,1.621-2.623,3.17-2.65c1.164-0.047,2.32,0.205,3.36,0.73l0.56,0.23    c1.49,0.762,2.611,2.092,3.11,3.69c-0.115-0.096-0.26-0.149-0.41-0.15c-0.52,0-0.73,0.51-0.9,0.91    c-0.035,0.082-0.065,0.165-0.09,0.25l-0.23-0.09c-0.233-0.105-0.485-0.163-0.74-0.17c-0.501-0.833-1.254-1.484-2.15-1.86    c-0.24-0.137-0.545-0.053-0.682,0.187s-0.053,0.545,0.187,0.682c0.021,0.012,0.042,0.022,0.064,0.031    c1.4,0.68,1.82,1.43,1.94,2.11c0.007,0.12,0.007,0.24,0,0.36L17.001,9c0,0,0,0.27,0,0.39v0.1c-0.024,0.404-0.098,0.804-0.22,1.19    c-0.143,0.427-0.231,0.871-0.26,1.32v0.29c-0.131,0.897,0.135,1.806,0.73,2.49l0,0c0.003,0.043,0.003,0.087,0,0.13c0,0,0,0,0,0.06    c0.004,0.05,0.004,0.1,0,0.15v0.08c-0.024,0.088-0.061,0.172-0.11,0.25c-0.4,0.55-1.75,1.55-6.64,1.55s-6.24-1-6.62-1.53    c-0.053-0.08-0.094-0.168-0.12-0.26c-0.001-0.027-0.001-0.053,0-0.08c-0.004-0.047-0.004-0.093,0-0.14c0,0,0,0,0-0.07    c-0.003-0.037-0.003-0.073,0-0.11l0,0C4.981,13.506,5.658,11.786,5.651,10z M18.561,19c0.289,0.251,0.45,0.618,0.44,1    c0,0.58-3.74,2-8.5,2s-8.5-1.42-8.5-2c-0.019-0.394,0.064-0.787,0.24-1.14c0.14-0.266,0.215-0.56,0.22-0.86    c-0.011-0.345-0.089-0.685-0.23-1c-0.143-0.314-0.221-0.655-0.23-1c0.032-0.424,0.329-0.781,0.74-0.89    c-0.004,0.077-0.004,0.153,0,0.23c0,0.05,0,0.1,0,0.15c0.06,0.182,0.148,0.354,0.26,0.51c0.84,1.34,3.35,2,7.48,2    s6.64-0.68,7.48-2c0.091-0.146,0.162-0.304,0.21-0.47c0-0.05,0-0.1,0-0.15s0-0.12,0-0.18c0.217,0.215,0.323,0.517,0.29,0.82    c-0.009,0.345-0.087,0.686-0.23,1c-0.142,0.315-0.22,0.655-0.23,1c0.047,0.391,0.253,0.746,0.57,0.98H18.561z M21.711,10.29    c-0.322,0.115-0.59,0.347-0.75,0.65c-0.076,0.336-0.037,0.688,0.11,1l0,0c-0.304-0.173-0.667-0.209-1-0.1    c-0.284,0.178-0.491,0.457-0.58,0.78c-0.089-0.323-0.296-0.602-0.58-0.78c-0.335-0.097-0.694-0.057-1,0.11l-0.19,0.07    c0-0.06,0-0.12,0-0.17c0.04-0.268,0.016-0.543-0.07-0.8v-0.13c0.165-0.429,0.282-0.875,0.35-1.33c0.003-0.03,0.003-0.06,0-0.09    V9.39c0-0.15,0-0.32,0-0.5l0,0c0-0.12,0-0.25,0-0.39c0.304,0.172,0.664,0.215,1,0.12c0.284-0.178,0.491-0.457,0.58-0.78    c0.089,0.323,0.296,0.602,0.58,0.78c0.333,0.109,0.696,0.073,1-0.1l0,0c-0.146,0.312-0.185,0.664-0.11,1    c0.162,0.305,0.434,0.537,0.76,0.65h0.07L21.711,10.29z" style="fill:#303C42;"/><linearGradient gradientTransform="matrix(1 0 0 -1 0 24)" gradientUnits="userSpaceOnUse" id="SVGID_1_" x1="4.0351" x2="21.4003" y1="14.929" y2="6.8259"><stop offset="0" style="stop-color:#FFFFFF;stop-opacity:0.2"/><stop offset="1" style="stop-color:#FFFFFF;stop-opacity:0"/></linearGradient><path d="M23.001,10.25c0-0.51-0.48-0.75-0.83-0.93l-0.25-0.13c0-0.1,0.07-0.24,0.1-0.33    c0.13-0.4,0.3-0.89,0-1.24c-0.233-0.228-0.581-0.291-0.88-0.16c-0.312-2.364-1.787-4.414-3.93-5.46l-0.56-0.23    c-1.163-0.564-2.449-0.828-3.74-0.77c-1.855-0.009-3.489,1.217-4,3c-2,0.37-4.24,3.49-4.24,6c-0.006,1.483-0.566,2.909-1.57,4    c-1.124-0.006-2.052,0.877-2.1,2c0.006,0.468,0.104,0.93,0.29,1.36c0.096,0.201,0.154,0.418,0.17,0.64    c-0.007,0.158-0.052,0.312-0.13,0.45c-0.235,0.482-0.348,1.014-0.33,1.55c0,2,6.09,3,9.5,3s9.5-1,9.5-3    c0.012-0.633-0.242-1.243-0.7-1.68c-0.17-0.18-0.22-0.25-0.22-0.32c0.017-0.222,0.074-0.439,0.17-0.64    c0.186-0.43,0.284-0.892,0.29-1.36c0.11-0.994-0.607-1.888-1.6-1.998c-0.007-0.001-0.013-0.001-0.02-0.002    c-0.23-0.261-0.364-0.593-0.38-0.94c0.258-0.002,0.514-0.056,0.75-0.16l0.23-0.08l0.11,0.25c0.17,0.41,0.38,0.91,0.9,0.91    s0.73-0.51,0.9-0.91c0.035-0.081,0.065-0.165,0.09-0.25l0.24,0.09c0.35,0.14,0.88,0.35,1.24,0s0.16-0.85,0-1.24    c0-0.09-0.08-0.24-0.1-0.33l0.25-0.13C22.521,11,23.001,10.76,23.001,10.25z" style="fill:url(#SVGID_1_);"/></g></g></svg>