<?xml version="1.0" ?><svg height="309" version="1.1" width="338" xmlns="http://www.w3.org/2000/svg" xmlns:xlink="http://www.w3.org/1999/xlink"><g id="dp_dp001" transform="matrix(1,0,0,1,-1173.56,-1186.58)"><path d="M 1436.64,1321.14 C 1436.64,1392.27 1379.04,1449.93 1307.99,1449.93 C 1236.93,1449.93 1179.33,1392.27 1179.33,1321.14 C 1179.33,1250.01 1236.93,1192.36 1307.99,1192.36 C 1379.04,1192.36 1436.64,1250.01 1436.64,1321.14 Z " fill="none" fill-rule="evenodd" id="dp_path002" stroke="black" stroke-linecap="round" stroke-linejoin="round" stroke-width="12"/><path d="M 1410.74,1403.21 L 1502.75,1486.5" fill="none" fill-rule="evenodd" id="dp_path003" stroke="black" stroke-linecap="round" stroke-linejoin="round" stroke-width="17.3333"/><path d="M 1320.84,1393.83 C 1312.29,1377.43 1295.2,1363.21 1274.03,1356.79 C 1285.85,1348.63 1293.64,1334.75 1293.64,1319 C 1293.64,1293.88 1273.87,1273.53 1249.47,1273.53 C 1225.09,1273.53 1205.31,1293.88 1205.31,1319 C 1205.31,1334.75 1213.1,1348.64 1224.92,1356.79 C 1218.84,1358.64 1213.09,1361.13 1207.79,1364.13" fill="none" fill-rule="evenodd" id="dp_path004" stroke="black" stroke-linecap="round" stroke-linejoin="round" stroke-width="12"/><path d="M 1414.66,1345.59 C 1406.91,1339.59 1397.75,1334.76 1387.66,1331.7 C 1399.48,1323.54 1407.28,1309.66 1407.28,1293.91 C 1407.28,1268.8 1387.5,1248.45 1363.11,1248.45 C 1338.72,1248.45 1318.95,1268.8 1318.95,1293.91 C 1318.95,1309.67 1326.73,1323.55 1338.56,1331.71 C 1325.55,1335.65 1314.09,1342.54 1305.2,1351.07" fill="none" fill-rule="evenodd" id="dp_path005" stroke="black" stroke-linecap="round" stroke-linejoin="round" stroke-width="12"/></g></svg>